<svg xmlns="http://www.w3.org/2000/svg" width="300" height="300" viewBox="0 0 300 300"><rect width="100%" height="100%" fill="#DDDDDD"/><path fill="#999999" d="M88.88 132.58V138H78.2v30.01h-6.59V138H60.93v-5.42h27.95Zm9.75-.98v13.97q1.47-1.37 3.24-2.23 1.76-.86 4.14-.86 2.05 0 3.65.7 1.59.7 2.66 1.96 1.06 1.26 1.61 3.01.55 1.75.55 3.86v16h-6.05v-16q0-2.3-1.05-3.56-1.06-1.26-3.21-1.26-1.57 0-2.94.71-1.37.71-2.6 1.93v18.18h-6.05V131.6h6.05Zm37.19 11.27h6.05v25.14h-3.69q-1.21 0-1.52-1.1l-.42-2.01q-1.54 1.57-3.41 2.53-1.86.97-4.38.97-2.06 0-3.64-.7-1.58-.69-2.66-1.97-1.08-1.27-1.63-3.02-.55-1.76-.55-3.86v-15.98h6.05v15.98q0 2.3 1.07 3.56 1.06 1.26 3.2 1.26 1.56 0 2.94-.69 1.37-.7 2.59-1.93v-18.18Zm18.08 25.14h-6.05v-25.14h3.7q1.18 0 1.55 1.11l.39 1.86q.66-.74 1.38-1.35.72-.61 1.55-1.05.82-.44 1.76-.7.94-.26 2.07-.26 2.38 0 3.91 1.29 1.53 1.28 2.29 3.42.59-1.25 1.47-2.15.88-.89 1.93-1.46 1.06-.56 2.25-.83 1.18-.27 2.38-.27 2.09 0 3.7.64 1.62.63 2.72 1.86 1.11 1.23 1.68 2.99.58 1.76.58 4.04v16h-6.05v-16q0-2.4-1.06-3.61-1.05-1.21-3.08-1.21-.94 0-1.73.31-.8.32-1.4.92-.6.6-.94 1.51-.34.91-.34 2.08v16h-6.08v-16q0-2.52-1.02-3.67-1.01-1.15-2.97-1.15-1.33 0-2.47.64-1.14.65-2.12 1.78v18.4Zm41.04-17.79v11.27q1.03 1.25 2.24 1.77 1.22.51 2.56.51 1.4 0 2.51-.5 1.12-.5 1.9-1.57.79-1.06 1.2-2.72.42-1.65.42-3.96 0-4.14-1.37-5.99-1.37-1.84-3.95-1.84-1.74 0-3.03.79-1.3.8-2.48 2.24Zm0-18.62v14.36q1.52-1.59 3.37-2.54 1.85-.94 4.23-.94 2.18 0 3.93.86t2.99 2.46q1.24 1.61 1.9 3.88.66 2.28.66 5.12 0 3.07-.76 5.57-.76 2.49-2.17 4.27-1.41 1.78-3.39 2.76-1.99.98-4.41.98-1.18 0-2.13-.24-.96-.23-1.77-.64-.81-.42-1.48-1.02-.67-.6-1.29-1.34l-.27 1.69q-.14.64-.5.91-.35.27-.97.27h-3.99V131.6h6.05Zm37.76 31.88h6.37v4.53h-19.6v-4.53h7.17v-20.66q0-1.22.08-2.52l-5.1 4.26q-.44.35-.87.43-.43.09-.81.01-.38-.07-.67-.25-.29-.19-.44-.41l-1.91-2.62 10.8-9.19h4.98v30.95Z"/></svg>