<svg xmlns="http://www.w3.org/2000/svg" width="47" height="47" viewBox="0 0 47 47">
  <g id="icone_entrega" transform="translate(-499 -1249)">
    <rect id="Retângulo_56" data-name="Retângulo 56" width="47" height="47" rx="5" transform="translate(499 1249)" fill="#e26d03"/>
    <path id="Subtração_1" data-name="Subtração 1" d="M23.711,19.065a3.241,3.241,0,0,1-3.138-2.43H11.324a3.24,3.24,0,0,1-6.274,0H1.414A1.416,1.416,0,0,1,0,15.221V1.413A1.415,1.415,0,0,1,1.414,0h3.17a5.885,5.885,0,0,0,.228,1.626H1.627V15.008H5.051c.016-.057.039-.137.073-.237l.005-.015.005-.015c.022-.065.049-.133.088-.222l.014-.032c.034-.074.071-.147.109-.219s.08-.139.13-.215a.107.107,0,0,0,.009-.016c.046-.07.1-.136.142-.2l.008-.01.011-.014c.059-.074.109-.133.158-.186l.007-.007c.066-.07.122-.126.175-.175l.007-.007c.052-.048.111-.1.186-.158l.012-.009.012-.009c.061-.047.127-.095.2-.141l.016-.01c.071-.047.14-.088.209-.127l.006,0c.081-.044.15-.078.218-.108l.02-.009.013-.006c.077-.034.15-.062.221-.088l.032-.011c.089-.03.162-.053.23-.071l.007,0c.083-.021.163-.038.239-.052l.043-.007c.081-.014.161-.024.237-.031l.029,0h.014c.084-.007.167-.011.253-.011s.169,0,.252.011h.014l.029,0c.076.007.154.017.237.031l.043.007c.076.013.156.031.239.052l.007,0c.082.021.16.046.232.071l.03.01c.073.026.145.055.222.089l.016.008.016.008c.072.032.145.068.217.108l.006,0c.074.041.145.084.21.127l.008.005.008.005c.064.042.128.088.2.141l.02.016c.069.054.129.105.189.16l.007.007c.058.054.117.112.176.175l.006.007c.053.057.106.12.159.186l.018.024c.047.061.1.127.142.2l0,.008,0,.008c.043.063.085.132.128.21s.084.163.112.223l.014.032c.037.085.065.156.089.222a.28.28,0,0,0,.009.029c.03.086.054.164.072.236h7.34V1.626h-2.55A5.882,5.882,0,0,0,16.34,0h2.535a1.415,1.415,0,0,1,1.413,1.413v3.32l3.421-.08h.036a2.032,2.032,0,0,1,1.7,1.2l3.233,5.679.009.193a23.388,23.388,0,0,1-.022,3.841,1.394,1.394,0,0,1-.656.915,1.358,1.358,0,0,1-.865.152h-.3A3.242,3.242,0,0,1,23.711,19.065Zm0-4.854c-.048,0-.1,0-.165.008a1.614,1.614,0,1,0,1.777,1.606c0-.006,0-.011,0-.015s0-.01,0-.014c0-.045,0-.092-.007-.138v-.007a1.621,1.621,0,0,0-1.439-1.432C23.811,14.214,23.759,14.211,23.711,14.211Zm-15.523,0c-.062,0-.12,0-.165.008a1.621,1.621,0,0,0-1.439,1.432.015.015,0,0,0,0,.007c0,.041-.007.086-.008.138,0,0,0,.009,0,.014s0,.01,0,.014a1.613,1.613,0,0,0,3.227,0c0-.006,0-.01,0-.015s0-.01,0-.015c0-.045,0-.092-.007-.138a.015.015,0,0,1,0-.007A1.621,1.621,0,0,0,8.352,14.22C8.288,14.214,8.236,14.211,8.188,14.211Zm15.523-1.626c.085,0,.17,0,.253.011h.014l.029,0c.074.007.152.017.237.031l.042.007c.074.013.152.03.239.052l.007,0c.082.021.16.046.232.071l.031.011c.077.028.151.057.221.088l.017.008.017.008c.073.033.146.069.216.108l.006,0c.074.041.145.084.21.127l.016.011c.065.043.129.089.2.141l.025.019c.077.061.134.11.185.158l.007.007c.058.054.117.113.176.175l.006.007c.053.057.106.12.159.186a.184.184,0,0,0,.019.024c.054.071.1.135.141.2l.005.008.005.008c.043.066.086.136.127.21s.07.133.112.223l.014.032c.031.069.061.142.089.222l0,.014,0,.016c.029.083.053.161.073.236h.267c.043-.533.014-1.916-.036-3.006L24,6.6l-.016-.036a.67.67,0,0,0-.245-.286l-3.453.082v8.649h.288c.021-.079.045-.157.073-.237a.286.286,0,0,1,.009-.029c.027-.075.057-.15.088-.222,0-.011.009-.021.015-.032.031-.071.067-.142.108-.219s.08-.139.13-.215l.005-.008.005-.008c.041-.061.087-.126.141-.2l.019-.024c.059-.074.109-.133.158-.186l.007-.007c.056-.06.115-.119.175-.175l.007-.007c.052-.048.111-.1.186-.158l.025-.019c.067-.052.13-.1.2-.141l.008-.005.008-.005c.071-.047.14-.088.209-.127l.007,0c.071-.039.143-.075.216-.108l.017-.008.017-.008c.07-.031.144-.061.221-.088l.031-.011c.089-.031.163-.053.232-.071l.007,0c.081-.021.161-.038.239-.052l.042-.007c.085-.014.163-.024.237-.031l.029,0h.015C23.541,12.589,23.626,12.586,23.711,12.586Z" transform="translate(508 1266.531)" fill="#fff" stroke="rgba(0,0,0,0)" stroke-width="1"/>
    <g id="Elipse_4" data-name="Elipse 4" transform="translate(512.381 1260)" fill="none" stroke="#fff" stroke-width="1">
      <circle cx="6.5" cy="6.5" r="6.5" stroke="none"/>
      <circle cx="6.5" cy="6.5" r="6" fill="none"/>
    </g>
    <path id="Caminho_47" data-name="Caminho 47" d="M520.412,806.078v3.766l-1.757-1.46" transform="translate(-1.949 456.636)" fill="none" stroke="#fff" stroke-linecap="round" stroke-linejoin="round" stroke-width="1"/>
  </g>
</svg>
