<svg xmlns="http://www.w3.org/2000/svg" width="300" height="300" viewBox="0 0 300 300"><rect width="100%" height="100%" fill="#DDDDDD"/><path fill="#999999" d="M64.855 123.955h13.89v57.46h-13.89v-57.46Zm15.79-16.74q0 1.79-.73 3.36-.73 1.57-1.93 2.74-1.2 1.18-2.83 1.88-1.62.7-3.47.7-1.79 0-3.39-.7-1.59-.7-2.77-1.88-1.18-1.17-1.88-2.74-.7-1.57-.7-3.36 0-1.85.7-3.47.7-1.63 1.88-2.8 1.18-1.18 2.77-1.88 1.6-.7 3.39-.7 1.85 0 3.47.7 1.63.7 2.83 1.88 1.2 1.17 1.93 2.8.73 1.62.73 3.47Zm26.04 74.2h-13.83v-57.46h8.45q2.69 0 3.53 2.52l.9 4.26q1.51-1.68 3.16-3.08 1.65-1.4 3.53-2.41 1.88-1.01 4.03-1.59 2.16-.59 4.73-.59 5.44 0 8.94 2.94 3.5 2.94 5.23 7.81 1.35-2.86 3.36-4.9 2.02-2.04 4.43-3.33 2.4-1.29 5.12-1.91 2.72-.61 5.46-.61 4.76 0 8.46 1.45 3.69 1.46 6.21 4.26t3.84 6.83q1.31 4.03 1.31 9.24v36.57h-13.83v-36.57q0-5.49-2.41-8.26-2.4-2.77-7.05-2.77-2.13 0-3.95.73-1.82.73-3.19 2.1-1.37 1.37-2.16 3.44-.78 2.07-.78 4.76v36.57h-13.89v-36.57q0-5.77-2.32-8.4-2.33-2.63-6.81-2.63-3.02 0-5.63 1.48-2.6 1.49-4.84 4.06v42.06Zm100.97-30.13q2.57 0 4.48-.7 1.9-.7 3.16-1.93 1.26-1.23 1.91-2.97.64-1.73.64-3.81 0-4.25-2.55-6.74-2.55-2.5-7.64-2.5-5.1 0-7.65 2.5-2.54 2.49-2.54 6.74 0 2.02.64 3.76.64 1.73 1.9 2.99 1.26 1.26 3.2 1.96 1.93.7 4.45.7Zm15.62 32.71q0-1.68-1.01-2.75-1-1.06-2.74-1.65-1.74-.59-4.06-.87-2.32-.28-4.93-.42-2.6-.14-5.37-.25-2.78-.11-5.41-.45-2.29 1.29-3.72 3.03-1.43 1.73-1.43 4.03 0 1.51.76 2.83.75 1.31 2.4 2.26 1.66.96 4.29 1.49t6.44.53q3.86 0 6.66-.59 2.8-.59 4.62-1.62 1.82-1.04 2.66-2.47.84-1.42.84-3.1Zm-2.74-58.08h16.52v5.16q0 2.46-2.97 3.02l-5.15.95q1.17 2.97 1.17 6.5 0 4.25-1.7 7.7-1.71 3.44-4.74 5.85-3.02 2.41-7.14 3.72-4.11 1.32-8.87 1.32-1.68 0-3.25-.17t-3.08-.45q-2.69 1.63-2.69 3.64 0 1.74 1.6 2.55 1.59.81 4.23 1.15 2.63.34 5.99.42 3.36.08 6.89.36 3.52.28 6.88.98t6 2.22q2.63 1.51 4.22 4.11 1.6 2.61 1.6 6.69 0 3.81-1.88 7.4-1.87 3.58-5.43 6.38-3.55 2.8-8.73 4.51-5.18 1.71-11.79 1.71-6.5 0-11.31-1.26-4.82-1.26-8.01-3.36-3.19-2.1-4.76-4.85-1.57-2.74-1.57-5.71 0-4.03 2.44-6.75 2.43-2.71 6.69-4.34-2.3-1.17-3.64-3.13-1.35-1.96-1.35-5.16 0-1.28.48-2.66.48-1.37 1.4-2.71.92-1.35 2.32-2.55 1.4-1.2 3.31-2.16-4.37-2.35-6.86-6.27-2.49-3.92-2.49-9.18 0-4.26 1.7-7.7 1.71-3.45 4.76-5.88 3.06-2.44 7.23-3.73 4.17-1.28 9.1-1.28 3.69 0 6.94.75 3.25.76 5.94 2.21Z"/></svg>