<svg id="Componente_45_1" data-name="Componente 45 – 1" xmlns="http://www.w3.org/2000/svg" width="44" height="44" viewBox="0 0 44 44">
  <g id="Retângulo_54" data-name="Retângulo 54" fill="none" stroke="#e26d03" stroke-width="1.5">
    <rect width="44" height="44" rx="16" stroke="none"/>
    <rect x="0.75" y="0.75" width="42.5" height="42.5" rx="15.25" fill="none"/>
  </g>
  <path id="Caminho_44" data-name="Caminho 44" d="M35.48,794.688l-.007-.148L33,790.192a1.535,1.535,0,0,0-1.333-.922l-2.619.062V786.79a1.083,1.083,0,0,0-1.082-1.082H14.6a1.083,1.083,0,0,0-1.082,1.082v10.572a1.084,1.084,0,0,0,1.082,1.082h2.784a2.481,2.481,0,0,0,4.8,0h7.081a2.481,2.481,0,0,0,4.8,0h.23a1.047,1.047,0,0,0,.162.013,1.01,1.01,0,0,0,.5-.129,1.066,1.066,0,0,0,.5-.7,17.844,17.844,0,0,0,.018-2.94m-15.7,4.371a1.237,1.237,0,0,1-1.235-1.234v0c0-.007,0-.014,0-.021,0-.035,0-.07.005-.1v-.006a1.235,1.235,0,0,1,2.455,0v.006c0,.035,0,.07.005.1,0,.007,0,.014,0,.021v0a1.237,1.237,0,0,1-1.235,1.234M27.8,797.2H22.182v0c-.016-.061-.035-.121-.055-.181l-.007-.022q-.031-.087-.068-.17l-.011-.024c-.026-.057-.053-.113-.083-.167l0,0c-.031-.055-.063-.109-.1-.162l-.008-.012c-.034-.052-.071-.1-.108-.15l-.014-.018c-.039-.049-.079-.1-.121-.142l0-.005q-.065-.07-.134-.134L21.46,796c-.046-.042-.093-.082-.142-.121l-.018-.015q-.073-.057-.15-.108l-.013-.008c-.052-.034-.106-.067-.16-.1l0,0c-.054-.03-.11-.057-.166-.083l-.026-.012q-.083-.037-.169-.068l-.024-.008c-.058-.02-.117-.038-.177-.054h-.005c-.06-.016-.121-.028-.183-.04l-.033-.006q-.09-.015-.182-.023l-.033,0c-.064,0-.128-.008-.193-.008s-.13,0-.193.008l-.033,0q-.092.008-.182.023l-.033.006c-.062.011-.123.024-.183.04h-.005c-.06.016-.119.034-.177.054l-.024.008q-.086.031-.169.068l-.025.012c-.057.026-.112.053-.166.083l0,0c-.055.03-.108.063-.16.1l-.013.008q-.077.051-.15.108l-.018.015c-.049.039-.1.079-.142.121l-.006.005q-.07.065-.134.134l0,.005c-.042.046-.082.093-.121.142l-.014.018c-.038.049-.074.1-.108.15l-.008.012q-.052.079-.1.162l0,0c-.03.054-.057.11-.083.167l-.011.024q-.037.084-.068.17l-.007.022c-.02.059-.039.12-.055.181v0H14.758V786.953H27.8V797.2Zm3.866,1.86a1.237,1.237,0,0,1-1.235-1.233v0a1.235,1.235,0,0,1,2.463-.131v.006c0,.035,0,.07.005.1,0,.007,0,.014,0,.021v0a1.237,1.237,0,0,1-1.235,1.234m2.6-1.86h-.2v0c-.016-.061-.035-.121-.055-.181L34,796.995q-.031-.087-.068-.17l-.011-.024c-.026-.057-.053-.113-.083-.167l0,0c-.031-.055-.063-.109-.1-.162l-.008-.012c-.034-.052-.07-.1-.108-.15l-.014-.018c-.039-.049-.079-.1-.121-.142l0-.005q-.065-.07-.134-.134L33.345,796c-.046-.042-.093-.082-.142-.121l-.019-.015q-.073-.057-.15-.108l-.013-.008c-.052-.034-.106-.067-.161-.1l0,0c-.054-.03-.11-.057-.166-.083l-.026-.012q-.083-.037-.169-.068l-.024-.008c-.058-.02-.117-.038-.177-.054H32.29c-.06-.016-.121-.028-.183-.04l-.033-.006q-.09-.015-.182-.023l-.033,0c-.064,0-.128-.008-.193-.008s-.13,0-.193.008l-.033,0q-.092.008-.182.023l-.033.006c-.062.011-.123.024-.183.04h-.005c-.06.016-.119.034-.177.054l-.024.008q-.086.031-.169.068l-.026.012c-.056.026-.112.053-.166.083l0,0c-.055.03-.108.063-.161.1l-.012.008q-.077.051-.15.108l-.019.015c-.049.039-.1.079-.142.121l-.005.005q-.07.065-.134.134l0,.005c-.042.046-.082.093-.121.142l-.014.018c-.038.049-.074.1-.108.15l-.008.012c-.035.053-.067.107-.1.162l0,0c-.03.054-.057.11-.083.167l-.011.024q-.037.084-.068.17l-.007.022c-.021.059-.039.12-.055.181v0h-.22v-6.622l2.643-.062a.517.517,0,0,1,.187.218l.012.028,2.355,4.137c.041.89.059,1.906.027,2.3" transform="translate(-1.523 -771.006)" fill="#e26d03"/>
</svg>
