<svg xmlns="http://www.w3.org/2000/svg" width="9.51" height="13" viewBox="0 0 9.51 13">
  <g id="Grupo_84" data-name="Grupo 84" transform="translate(-238.852 -257.543)">
    <path id="Caminho_10" data-name="Caminho 10" d="M54.954,4.687a9.35,9.35,0,0,1-1.823,5.4,12.392,12.392,0,0,1-2.748,2.83c-.108.08-.189.134-.326.029a11.284,11.284,0,0,1-4.413-6.467A5.518,5.518,0,0,1,46,2.54a4.747,4.747,0,0,1,8.885,1.4c.048.291.058.589.072.745m-.854.156c-.02-.214-.034-.429-.063-.642a3.875,3.875,0,0,0-7.554-.563,5.541,5.541,0,0,0,.14,3.156,10.808,10.808,0,0,0,3.436,5.05c.133.118.22.073.316-.029.645-.7,1.345-1.353,1.922-2.1a8.3,8.3,0,0,0,1.8-4.869" transform="translate(193.408 257.542)" fill="#e26d03"/>
    <path id="Caminho_11" data-name="Caminho 11" d="M96.195,52.97a2.5,2.5,0,1,1,2.484-2.512,2.5,2.5,0,0,1-2.484,2.512m-1.511-2.5a1.5,1.5,0,1,0,1.515-1.5,1.509,1.509,0,0,0-1.515,1.5" transform="translate(147.428 211.952)" fill="#e26d03"/>
  </g>
</svg>
