<svg id="Componente_44_1" data-name="Componente 44 – 1" xmlns="http://www.w3.org/2000/svg" width="44" height="44" viewBox="0 0 44 44">
  <g id="Retângulo_54" data-name="Retângulo 54" fill="none" stroke="#e26d03" stroke-width="1.5">
    <rect width="44" height="44" rx="16" stroke="none"/>
    <rect x="0.75" y="0.75" width="42.5" height="42.5" rx="15.25" fill="none"/>
  </g>
  <g id="Grupo_39" data-name="Grupo 39" transform="translate(-223.715 -267.93)">
    <path id="Caminho_12" data-name="Caminho 12" d="M19.08,272.278c0,.928-.005,1.855,0,2.783a2.126,2.126,0,0,1-.633,1.566Q14,281.152,9.535,285.671a2.057,2.057,0,0,1-3.087-.015Q3.567,282.786.7,279.906a2.068,2.068,0,0,1-.039-3.06q4.183-4.393,8.376-8.778a2.269,2.269,0,0,1,1.743-.733c2.03.013,4.06,0,6.09.005a2.085,2.085,0,0,1,2.214,2.2c0,.913,0,1.826,0,2.739m-5.26-3.546c-1,0-2-.026-3,.017a1.326,1.326,0,0,0-.826.354q-4.162,4.322-8.285,8.681a.7.7,0,0,0,.008,1.131q2.874,2.875,5.756,5.742a.7.7,0,0,0,1.131.005q4.39-4.464,8.763-8.944a1.222,1.222,0,0,0,.306-.765c.026-1.782.015-3.564.013-5.347,0-.62-.25-.871-.865-.873-1,0-2,0-3,0" transform="translate(235 12.867)" fill="#e26d03"/>
    <path id="Caminho_13" data-name="Caminho 13" d="M141.2,300.475a1.912,1.912,0,0,1,1.934-1.942,2.064,2.064,0,0,1,2.046,2.061,1.945,1.945,0,0,1-1.953,1.935,2.012,2.012,0,0,1-2.028-2.054m1.947-.595a.572.572,0,0,0-.587.632.654.654,0,0,0,.686.652.565.565,0,0,0,.6-.579.7.7,0,0,0-.695-.7" transform="translate(106.25 -15.684)" fill="#e26d03"/>
  </g>
</svg>
