<svg id="Grupo_283" data-name="Grupo 283" xmlns="http://www.w3.org/2000/svg" xmlns:xlink="http://www.w3.org/1999/xlink" width="22.46" height="22.45" viewBox="0 0 22.46 22.45">
  <defs>
    <clipPath id="clip-path">
      <rect id="Retângulo_252" data-name="Retângulo 252" width="22.46" height="22.45" fill="none"/>
    </clipPath>
  </defs>
  <g id="Grupo_282" data-name="Grupo 282" clip-path="url(#clip-path)">
    <path id="Caminho_110" data-name="Caminho 110" d="M0,11.21C0,9.6.008,7.981,0,6.367A6.169,6.169,0,0,1,1.382,2.311,5.984,5.984,0,0,1,5.231.09,8.466,8.466,0,0,1,6.473.005C9.688,0,12.9,0,16.116,0A6.134,6.134,0,0,1,20.6,1.8a5.938,5.938,0,0,1,1.838,4.314q.031,5.106,0,10.212a6.167,6.167,0,0,1-5.049,6.013,6.5,6.5,0,0,1-1.175.107q-5,.012-9.993,0A6.183,6.183,0,0,1,.118,17.4a7.133,7.133,0,0,1-.111-1.262C-.005,14.5,0,12.854,0,11.21M2,11.2q0,2.444,0,4.888a4.2,4.2,0,0,0,.371,1.872,4.136,4.136,0,0,0,3.966,2.49c3.266.012,6.532,0,9.8,0a4.218,4.218,0,0,0,4.322-4.309c.014-3.28,0-6.561,0-9.841a4.223,4.223,0,0,0-4.348-4.309q-3.036,0-6.071,0c-1.373,0-2.748-.017-4.12.028A3.936,3.936,0,0,0,2.923,3.574a4.2,4.2,0,0,0-.929,2.762C2,7.958,2,9.58,2,11.2" transform="translate(0 0)" fill="#161615"/>
    <path id="Caminho_111" data-name="Caminho 111" d="M129.871,135.622a5.786,5.786,0,1,1,5.781-5.792,5.81,5.81,0,0,1-5.781,5.792m-.009-9.571a3.785,3.785,0,1,0,3.788,3.781,3.781,3.781,0,0,0-3.788-3.781" transform="translate(-118.639 -118.611)" fill="#161615"/>
    <path id="Caminho_112" data-name="Caminho 112" d="M361.605,88.636a1.455,1.455,0,1,1,1.464-1.461,1.469,1.469,0,0,1-1.464,1.461" transform="translate(-344.352 -81.967)" fill="#161615"/>
  </g>
</svg>
