<svg xmlns="http://www.w3.org/2000/svg" width="22.531" height="18.905" viewBox="0 0 22.531 18.905">
  <g id="carrinho" transform="translate(0 0)">
    <path id="Caminho_4" data-name="Caminho 4" d="M313.046,15h-5.859c-.729,0-.954-.192-1.165-1.017-.98-3.822-1.963-7.643-2.926-11.471-.106-.422-.259-.567-.633-.55-.748.033-1.5.018-2.246,0a.838.838,0,0,1-.8-.743.954.954,0,0,1,.348-1.027A.956.956,0,0,1,300.3.013q1.586-.024,3.172,0c.519.006.779.251.932.826.135.507.277,1.012.381,1.528.073.363.215.481.541.478,2.041-.019,4.082-.009,6.123-.009h9.383c.891,0,1.22.472,1.027,1.5q-.915,4.842-1.84,9.682c-.148.776-.383.985-1.073.985q-2.951,0-5.9,0m-5.515-1.98H318.5l1.556-8.2H305.429l2.1,8.2" transform="translate(-299.384 0)" fill="#e26d03"/>
    <path id="Caminho_5" data-name="Caminho 5" d="M503.452,191.221a1.15,1.15,0,0,1-.026-2.3,1.15,1.15,0,1,1,.026,2.3" transform="translate(-484.498 -172.317)" fill="#e26d03"/>
    <path id="Caminho_6" data-name="Caminho 6" d="M383.821,191.221a1.15,1.15,0,0,1-.026-2.3,1.15,1.15,0,1,1,.026,2.3" transform="translate(-375.338 -172.317)" fill="#e26d03"/>
  </g>
</svg>
