<svg id="Grupo_291" data-name="Grupo 291" xmlns="http://www.w3.org/2000/svg" xmlns:xlink="http://www.w3.org/1999/xlink" width="8.784" height="15.385" viewBox="0 0 8.784 15.385">
  <defs>
    <clipPath id="clip-path">
      <rect id="Retângulo_257" data-name="Retângulo 257" width="8.784" height="15.385" fill="none" stroke="#161615" stroke-width="0.3"/>
    </clipPath>
  </defs>
  <g id="Grupo_290" data-name="Grupo 290" clip-path="url(#clip-path)">
    <path id="Caminho_118" data-name="Caminho 118" d="M2.209,9.064c-.476,0-.915,0-1.353,0a.754.754,0,0,1-.849-.827C0,7.5,0,6.773.007,6.041A.761.761,0,0,1,.845,5.2c.439-.012.879,0,1.365,0,0-.376,0-.723,0-1.07A4.343,4.343,0,0,1,2.7,1.893,3.512,3.512,0,0,1,5.84.013c.731-.026,1.464-.006,2.2,0a.7.7,0,0,1,.737.7q.02,1.127,0,2.255a.723.723,0,0,1-.738.719c-.49.021-.982.027-1.473.028-.289,0-.386.144-.378.415.011.339,0,.678,0,1.063h1.3c1.032,0,1.2.171,1.2,1.206,0,.591,0,1.183,0,1.774-.007.634-.268.889-.9.89-.52,0-1.04,0-1.6,0v.377q0,2.481,0,4.962c0,.718-.261.979-.979.981q-1.008,0-2.016,0c-.733,0-.979-.245-.979-.967q0-2.481,0-4.962V9.064m3.065,5.387v-.375q0-2.571,0-5.143c0-.646.13-.778.767-.778H7.757V6.107H7.416c-.522,0-1.043.007-1.565,0-.375-.007-.567-.176-.572-.513-.008-.561-.014-1.123.014-1.683a1.079,1.079,0,0,1,1.02-1.074c.407-.043.82-.036,1.231-.051.105,0,.21-.011.3-.015V.9C7.172.9,6.52.885,5.869.907A2.668,2.668,0,0,0,3.187,3.3a20.2,20.2,0,0,0-.069,2.159c-.01.454-.183.636-.642.642-.441.006-.883-.006-1.324.009-.08,0-.223.093-.225.146-.016.619-.01,1.238-.01,1.9h1.5c.531,0,.7.171.7.7q0,2.616,0,5.233v.359Z" transform="translate(0 0)" fill="#161615" stroke="#161615" stroke-width="0.3"/>
  </g>
</svg>
