<svg id="Grupo_294" data-name="Grupo 294" xmlns="http://www.w3.org/2000/svg" xmlns:xlink="http://www.w3.org/1999/xlink" width="15.391" height="15.385" viewBox="0 0 15.391 15.385">
  <defs>
    <clipPath id="clip-path">
      <rect id="Retângulo_252" data-name="Retângulo 252" width="15.391" height="15.385" fill="none"/>
    </clipPath>
  </defs>
  <g id="Grupo_282" data-name="Grupo 282" clip-path="url(#clip-path)">
    <path id="Caminho_110" data-name="Caminho 110" d="M0,7.682c0-1.106,0-2.213,0-3.319A4.227,4.227,0,0,1,.947,1.584,4.1,4.1,0,0,1,3.584.062,5.8,5.8,0,0,1,4.436,0c2.2,0,4.405,0,6.608,0A4.2,4.2,0,0,1,14.12,1.231a4.069,4.069,0,0,1,1.259,2.957q.021,3.5,0,7a4.226,4.226,0,0,1-3.46,4.12,4.453,4.453,0,0,1-.805.073q-3.424.008-6.848,0A4.237,4.237,0,0,1,.081,11.926,4.888,4.888,0,0,1,0,11.061C0,9.935,0,8.808,0,7.682m1.366-.005q0,1.675,0,3.349a2.878,2.878,0,0,0,.254,1.283,2.834,2.834,0,0,0,2.718,1.706c2.238.008,4.476,0,6.714,0a2.891,2.891,0,0,0,2.962-2.953c.01-2.248,0-4.5,0-6.744a2.894,2.894,0,0,0-2.979-2.953q-2.08,0-4.161,0c-.941,0-1.883-.012-2.823.019A2.7,2.7,0,0,0,2,2.449a2.879,2.879,0,0,0-.636,1.893c0,1.111,0,2.223,0,3.334" transform="translate(0 0)" fill="#161615"/>
    <path id="Caminho_111" data-name="Caminho 111" d="M128.048,131.98a3.965,3.965,0,1,1,3.961-3.969,3.981,3.981,0,0,1-3.961,3.969m-.006-6.559a2.594,2.594,0,1,0,2.6,2.591,2.591,2.591,0,0,0-2.6-2.591" transform="translate(-120.351 -120.323)" fill="#161615"/>
    <path id="Caminho_112" data-name="Caminho 112" d="M361.144,87.72a1,1,0,1,1,1-1,1.007,1.007,0,0,1-1,1" transform="translate(-349.321 -83.15)" fill="#161615"/>
  </g>
</svg>
