<svg id="Grupo_293" data-name="Grupo 293" xmlns="http://www.w3.org/2000/svg" xmlns:xlink="http://www.w3.org/1999/xlink" width="21.899" height="15.385" viewBox="0 0 21.899 15.385">
  <defs>
    <clipPath id="clip-path">
      <rect id="Retângulo_258" data-name="Retângulo 258" width="21.899" height="15.385" fill="none"/>
    </clipPath>
  </defs>
  <g id="Grupo_292" data-name="Grupo 292" clip-path="url(#clip-path)">
    <path id="Caminho_119" data-name="Caminho 119" d="M10.932.005c2.166,0,4.332-.006,6.5,0a4.317,4.317,0,0,1,4.422,3.712,3.978,3.978,0,0,1,.044.68q0,3.271,0,6.542a4.288,4.288,0,0,1-4.3,4.419q-6.648.048-13.3,0A4.288,4.288,0,0,1,0,10.933q0-3.249,0-6.5A4.314,4.314,0,0,1,4.391.009c2.18-.017,4.361,0,6.542,0m.016,14.075c2.167,0,4.334.008,6.5,0A3.037,3.037,0,0,0,20.614,10.9q0-3.207,0-6.415A3.032,3.032,0,0,0,17.451,1.3q-6.5-.014-13,0A3.032,3.032,0,0,0,1.284,4.48q0,3.143,0,6.286a3.063,3.063,0,0,0,3.335,3.315q3.165,0,6.329,0" transform="translate(0 0)" fill="#161615"/>
    <path id="Caminho_120" data-name="Caminho 120" d="M95.7,44.973c0-1.1,0-2.195,0-3.292a.729.729,0,0,1,.332-.732.718.718,0,0,1,.8.105q2.673,1.685,5.348,3.366c.624.394.625.9,0,1.286q-2.673,1.644-5.353,3.277c-.648.395-1.118.129-1.122-.632-.006-1.126,0-2.252,0-3.378m1.3,2.39,3.765-2.308-3.765-2.362Z" transform="translate(-87.515 -37.371)" fill="#161615"/>
  </g>
</svg>
