<svg xmlns="http://www.w3.org/2000/svg" width="11.392" height="14.633" viewBox="0 0 11.392 14.633">
  <path id="Caminho_121" data-name="Caminho 121" d="M4.8,9.693c-.131.493-.252.961-.379,1.427A6.809,6.809,0,0,1,3.013,13.8c-.139.162-.277.365-.546.282-.287-.089-.348-.329-.362-.587a12.263,12.263,0,0,1,.389-3.788c.253-.965.474-1.939.7-2.912a1,1,0,0,0-.019-.473,3.112,3.112,0,0,1,.092-2.2,1.644,1.644,0,0,1,1.484-1.1A1.244,1.244,0,0,1,6.108,4.315,7.46,7.46,0,0,1,5.867,5.77c-.1.445-.259.878-.386,1.317A.94.94,0,0,0,5.7,8.152a1.023,1.023,0,0,0,1.181.164,2.268,2.268,0,0,0,.82-.658A4.849,4.849,0,0,0,8.464,3.78,2.212,2.212,0,0,0,6.78,2.056a3.676,3.676,0,0,0-3.218.427,3.254,3.254,0,0,0-1.441,3.29,3.529,3.529,0,0,0,.383.866,1.317,1.317,0,0,1,.189.547,3.228,3.228,0,0,1-.224.9.506.506,0,0,1-.766.226A2.98,2.98,0,0,1,.171,6.392a5,5,0,0,1,1.734-5.12A6.308,6.308,0,0,1,8.927.9a4.5,4.5,0,0,1,2.1,3.759A6.127,6.127,0,0,1,9.788,8.73,3.936,3.936,0,0,1,6.41,10.307,2.848,2.848,0,0,1,4.8,9.693M4.561,8.355c.079.132.137.213.181.3a1.915,1.915,0,0,0,1.913,1.09,3.452,3.452,0,0,0,2.83-1.554,5.593,5.593,0,0,0,.966-2.855A4.046,4.046,0,0,0,8.53,1.321,5.055,5.055,0,0,0,4.722.667,4.666,4.666,0,0,0,.7,4.168a3.588,3.588,0,0,0,.319,2.765,2.165,2.165,0,0,0,.956.883,2.6,2.6,0,0,1,.094-.346.558.558,0,0,0-.1-.621,1.928,1.928,0,0,1-.354-.734,3.757,3.757,0,0,1,1.35-3.889,4.128,4.128,0,0,1,3.9-.733A2.82,2.82,0,0,1,9.07,3.9a5.64,5.64,0,0,1-.727,3.84A2.507,2.507,0,0,1,7.22,8.8,1.684,1.684,0,0,1,5.336,8.59a1.467,1.467,0,0,1-.4-1.66c.124-.431.267-.857.379-1.291a8.449,8.449,0,0,0,.235-1.155.756.756,0,0,0-.365-.8.8.8,0,0,0-.952.1,1.932,1.932,0,0,0-.483.65,2.424,2.424,0,0,0-.042,1.721,1.277,1.277,0,0,1,.073.585c-.148.717-.331,1.427-.505,2.138a14.8,14.8,0,0,0-.631,4.145c0,.086.009.173.016.306,1.234-1.445,1.377-3.249,1.9-4.965" transform="translate(0.214 0.386)" fill="#161615" stroke="#161615" stroke-width="0.3"/>
</svg>
