<svg xmlns="http://www.w3.org/2000/svg" width="47" height="47" viewBox="0 0 47 47">
  <g id="icone_desconto" transform="translate(-904 -1249)">
    <rect id="Retângulo_56" data-name="Retângulo 56" width="47" height="47" rx="5" transform="translate(904 1249)" fill="#e26d03"/>
    <text id="_" data-name="%" transform="translate(921.5 1278)" fill="#fff" font-size="15" font-family="BarlowSemiCondensed-Medium, Barlow" font-weight="500"><tspan x="0" y="0">%</tspan></text>
    <g id="Polígono_4" data-name="Polígono 4" transform="translate(914 1259)" fill="none" stroke-linecap="round" stroke-linejoin="round">
      <path d="M13.5,0l2.485,1.9,3.037-.716,1.5,2.748,3.064.588.261,3.125,2.561,1.79-1.025,2.962L27,15.076l-2.135,2.286.391,3.111-2.875,1.216-.9,3-3.118-.065L16.322,27,13.5,25.665,10.678,27,8.64,24.626l-3.118.065-.9-3L1.744,20.474l.391-3.111L0,15.076l1.616-2.683L.59,9.431l2.561-1.79.261-3.125,3.064-.588,1.5-2.748,3.037.716Z" stroke="none"/>
      <path d="M 13.50000190734863 1.257900238037109 L 11.62209987640381 2.690910339355469 C 11.38413906097412 2.872491836547852 11.07734107971191 2.937936782836914 10.7859992980957 2.86924934387207 L 8.490716934204102 2.328130722045898 L 7.353370666503906 4.407960891723633 C 7.210180282592773 4.6697998046875 6.957529067993164 4.854009628295898 6.664449691772461 4.910249710083008 L 4.345615386962891 5.355222702026367 L 4.147550582885742 7.724550247192383 C 4.12278938293457 8.020750045776367 3.967550277709961 8.290580749511719 3.723930358886719 8.460870742797852 L 1.782173156738281 9.818103790283203 L 2.560470581054688 12.06595993041992 C 2.657489776611328 12.34617042541504 2.625150680541992 12.65499019622803 2.472169876098633 12.90902042388916 L 1.246070861816406 14.94508266448975 L 2.865819931030273 16.67971992492676 C 3.068370819091797 16.89664077758789 3.164100646972656 17.19231986999512 3.127130508422852 17.48678970336914 L 2.830753326416016 19.84734344482422 L 5.00885009765625 20.76819038391113 C 5.283170700073242 20.88417053222656 5.491510391235352 21.11637115478516 5.577180862426758 21.4015998840332 L 6.260242462158203 23.67578506469727 L 8.618539810180664 23.62631034851074 C 8.917510986328125 23.62003707885742 9.203470230102539 23.74783134460449 9.398220062255859 23.97467041015625 L 10.93957710266113 25.76988410949707 L 13.07238006591797 24.76095008850098 C 13.34308052062988 24.63290023803711 13.65691947937012 24.63290023803711 13.92761993408203 24.76095008850098 L 16.06042098999023 25.76988410949707 L 17.60177040100098 23.97467041015625 C 17.7965202331543 23.74782943725586 18.08256530761719 23.62003326416016 18.38145065307617 23.62631034851074 L 20.7397575378418 23.67578506469727 L 21.42282104492188 21.4015998840332 C 21.50848960876465 21.11637115478516 21.71682929992676 20.88417053222656 21.99114990234375 20.76819038391113 L 24.16924667358398 19.84734344482422 L 23.87286949157715 17.48678970336914 C 23.83589935302734 17.19231986999512 23.9316291809082 16.89664077758789 24.13418006896973 16.67971992492676 L 25.75392913818359 14.94508266448975 L 24.52783012390137 12.90902042388916 C 24.37484931945801 12.65499019622803 24.34251022338867 12.34617042541504 24.43952941894531 12.06595993041992 L 25.21782875061035 9.818098068237305 L 23.27606964111328 8.460870742797852 C 23.03244018554688 8.290580749511719 22.87720108032227 8.020750045776367 22.85243988037109 7.724540710449219 L 22.65438270568848 5.355218887329102 L 20.33555030822754 4.910240173339844 C 20.0424690246582 4.854000091552734 19.78981971740723 4.6697998046875 19.64662933349609 4.407960891723633 L 18.50926971435547 2.328130722045898 L 16.2140007019043 2.869239807128906 C 15.92266273498535 2.937923431396484 15.61585998535156 2.872480392456055 15.37790012359619 2.690900802612305 L 13.50000190734863 1.257900238037109 M 13.5 0 L 15.98453998565674 1.895919799804688 L 19.02119064331055 1.180030822753906 L 20.52400970458984 3.928159713745117 L 23.58771896362305 4.516080856323242 L 23.84896087646484 7.641239166259766 L 26.40999031066895 9.431320190429688 L 25.38449096679688 12.39313983917236 L 27 15.07586002349854 L 24.86507987976074 17.36220932006836 L 25.25573921203613 20.47369956970215 L 22.38055038452148 21.68926048278809 L 21.47880935668945 24.69150924682617 L 18.36048126220703 24.62609100341797 L 16.32226943969727 27 L 13.5 25.66490936279297 L 10.67773056030273 27 L 8.639509201049805 24.62609100341797 L 5.521190643310547 24.69150924682617 L 4.619449615478516 21.68926048278809 L 1.744260787963867 20.47369956970215 L 2.134920120239258 17.36220932006836 L 0 15.07586002349854 L 1.615510940551758 12.39313983917236 L 0.5900096893310547 9.431320190429688 L 3.151029586791992 7.641239166259766 L 3.41227912902832 4.516080856323242 L 6.475990295410156 3.928169250488281 L 7.978799819946289 1.180030822753906 L 11.01546001434326 1.895929336547852 L 13.5 0 Z" stroke="none" fill="#fff"/>
    </g>
  </g>
</svg>
