<svg xmlns="http://www.w3.org/2000/svg" width="44" height="44" viewBox="0 0 44 44">
  <g id="Grupo_635" data-name="Grupo 635" transform="translate(19691 -15536)">
    <g id="Retângulo_54" data-name="Retângulo 54" transform="translate(-19691 15536)" fill="none" stroke="#e26d03" stroke-width="1.5">
      <rect width="44" height="44" rx="16" stroke="none"/>
      <rect x="0.75" y="0.75" width="42.5" height="42.5" rx="15.25" fill="none"/>
    </g>
    <g id="Grupo_631" data-name="Grupo 631" transform="translate(-19679.031 15547.972)">
      <g id="Grupo_633" data-name="Grupo 633" transform="translate(0.029 0.029)">
        <path id="Caminho_199" data-name="Caminho 199" d="M19.594,254.5a2.908,2.908,0,0,1-.856,2.081q-1.027,1.029-2.055,2.057a.319.319,0,0,1-.276.116c-.324-.019-.651,0-.976-.009a2.749,2.749,0,0,1-.5-.06,1.841,1.841,0,0,1-.923-.511c-.928-.928-1.859-1.853-2.782-2.785a1.452,1.452,0,0,0-.986-.472,1.34,1.34,0,0,0-1.05.392q-1.424,1.42-2.844,2.843a1.956,1.956,0,0,1-1.444.6c-.378,0-.759-.021-1.135.008a.48.48,0,0,1-.421-.179c-.676-.684-1.363-1.358-2.037-2.044a2.747,2.747,0,0,1-.792-1.714,2.869,2.869,0,0,1,.9-2.412c.692-.684,1.377-1.374,2.064-2.063a.143.143,0,0,1,.166-.052.355.355,0,0,0,.115.009H4.923a1.93,1.93,0,0,1,1.407.587q1.427,1.424,2.851,2.851a1.313,1.313,0,0,0,.593.355,1.3,1.3,0,0,0,1.317-.311c.975-.956,1.932-1.93,2.9-2.887a2.59,2.59,0,0,1,.53-.38,1.772,1.772,0,0,1,.876-.209c.325,0,.652.019.975-.009a.37.37,0,0,1,.329.143c.684.687,1.373,1.368,2.054,2.058a2.783,2.783,0,0,1,.811,1.738C19.582,254.332,19.588,254.43,19.594,254.5Z" transform="translate(-0.5 -244.98)" fill="#e26d03"/>
        <path id="Caminho_200" data-name="Caminho 200" d="M194.565,4.987c-.166,0-.332-.009-.5,0a2.712,2.712,0,0,0-1.789.814q-1.418,1.41-2.829,2.827a.535.535,0,0,1-.821,0q-1.422-1.421-2.844-2.843a2.742,2.742,0,0,0-1.969-.822c-.179,0-.359,0-.561,0,.038-.042.062-.07.088-.1q1.763-1.763,3.526-3.526a2.907,2.907,0,0,1,4.11.01q1.764,1.755,3.519,3.518c.027.027.051.055.077.082Z" transform="translate(-179.377 -0.5)" fill="#e26d03"/>
        <path id="Caminho_201" data-name="Caminho 201" d="M183.219,511.755h.484a2.78,2.78,0,0,0,2.054-.85q1.4-1.4,2.8-2.8a.55.55,0,0,1,.847,0q1.407,1.407,2.814,2.813a2.747,2.747,0,0,0,2,.828h.32c-.039.044-.06.07-.083.094q-1.786,1.786-3.573,3.57a2.743,2.743,0,0,1-1.731.8,2.845,2.845,0,0,1-2.372-.866l-3.482-3.481a.851.851,0,0,0-.1-.074Z" transform="translate(-179.319 -497.137)" fill="#e26d03"/>
      </g>
    </g>
  </g>
</svg>
