<svg xmlns="http://www.w3.org/2000/svg" width="14.892" height="20" viewBox="0 0 14.892 20">
  <g id="Nossas_Lojas" data-name="Nossas Lojas" transform="translate(-238.36 -257.043)">
    <path id="Subtração_15" data-name="Subtração 15" d="M5977.055-990.457a.338.338,0,0,1-.206-.086A16.429,16.429,0,0,1,5970.4-1000a7.959,7.959,0,0,1,.515-5.75,6.956,6.956,0,0,1,6.184-3.711,7.352,7.352,0,0,1,1.106.084,6.815,6.815,0,0,1,3.736,1.92,6.965,6.965,0,0,1,1.961,3.755c.051.312.073.631.088.863l0,.03c0,.075.009.141.015.2a13.74,13.74,0,0,1-2.664,7.887,18.188,18.188,0,0,1-4.018,4.136A.471.471,0,0,1,5977.055-990.457Zm-.014-15.515a3.654,3.654,0,0,0-3.631,3.669,3.656,3.656,0,0,0,3.66,3.631h.009a3.657,3.657,0,0,0,3.631-3.67,3.652,3.652,0,0,0-3.658-3.63Zm.012,5.839h-.019a2.194,2.194,0,0,1-2.164-2.191,2.195,2.195,0,0,1,2.194-2.187h.021a2.193,2.193,0,0,1,2.164,2.19A2.2,2.2,0,0,1,5977.052-1000.133Z" transform="translate(-5731.253 1267)" fill="#feae0f" stroke="rgba(0,0,0,0)" stroke-width="1"/>
  </g>
</svg>
