<svg xmlns="http://www.w3.org/2000/svg" width="14.694" height="12" viewBox="0 0 14.694 12">
  <g id="Quarto_" data-name="Quarto " transform="translate(-361.378 -128.787)">
    <path id="Caminho_36" data-name="Caminho 36" d="M1012.033,185.713c-.378,0-.709-.014-1.038,0-.312.018-.42-.124-.4-.414.01-.158,0-.317,0-.509H998.83c0,.213-.006.43,0,.645s-.089.288-.287.285c-.294,0-.588-.007-.882,0-.228.006-.3-.11-.3-.318.006-1.36-.012-2.721.019-4.081a1.581,1.581,0,0,1,1.6-1.507c.87-.015,1.74-.005,2.61-.005q4.338,0,8.676,0a1.648,1.648,0,0,1,1.79,1.781c0,1.225,0,2.451,0,3.676,0,.132-.013.265-.022.44" transform="translate(-635.988 -44.938)" fill="#feae0f"/>
    <path id="Caminho_37" data-name="Caminho 37" d="M1017.436,105.357c-.02-.269-.037-.523-.057-.778-.031-.4-.182-.574-.565-.579-1.066-.013-2.132,0-3.2-.008a.467.467,0,0,0-.5.439,1.745,1.745,0,0,0-.067.471c.037.41-.134.538-.529.493a8.262,8.262,0,0,0-.918-.007c0-1.052-.05-2.067.017-3.074a1.25,1.25,0,0,1,1.312-1.148,2.189,2.189,0,0,0,1.219-.438,5.49,5.49,0,0,1,2.923-.971,7.7,7.7,0,0,1,3.879.577c.275.13.515.335.794.451a5.282,5.282,0,0,0,1.233.4,1.261,1.261,0,0,1,1.217,1.192c.033.978.008,1.958.008,2.965h-1.42c-.029-.294-.051-.582-.087-.869a.494.494,0,0,0-.545-.478q-1.581,0-3.161-.006a.528.528,0,0,0-.568.5c-.009.048-.012.1-.016.146-.063.815-.063.815-.977.716" transform="translate(-649.164 29.058)" fill="#feae0f"/>
  </g>
</svg>
