<svg xmlns="http://www.w3.org/2000/svg" width="22" height="22" viewBox="0 0 22 22">
  <g id="Polígono_30" data-name="Polígono 30" fill="none">
    <path d="M10.061,2.558a1,1,0,0,1,1.878,0l1.75,4.768a1,1,0,0,0,.882.654l4.944.282a1,1,0,0,1,.593,1.759l-3.919,3.349a1,1,0,0,0-.32,1.006l1.283,5.072a1,1,0,0,1-1.532,1.072l-4.058-2.76a1,1,0,0,0-1.125,0L6.38,20.519a1,1,0,0,1-1.532-1.072l1.283-5.072a1,1,0,0,0-.32-1.006L1.892,10.02a1,1,0,0,1,.593-1.759L7.429,7.98a1,1,0,0,0,.882-.654Z" stroke="none"/>
    <path d="M 10.99999809265137 4.353689193725586 L 9.71941089630127 7.842998504638672 C 9.375801086425781 8.779237747192383 8.510391235351562 9.420858383178711 7.514671325683594 9.477598190307617 L 3.812938690185547 9.688474655151367 L 6.785760879516602 12.22885799407959 C 7.513820648193359 12.85100841522217 7.820171356201172 13.81424808502197 7.585261344909668 14.74270820617676 L 6.625032424926758 18.53751564025879 L 9.593900680541992 16.51812744140625 C 10.01022052764893 16.23491859436035 10.49645137786865 16.08521842956543 11.00000095367432 16.08521842956543 C 11.50353050231934 16.08521842956543 11.98974132537842 16.23490905761719 12.40605068206787 16.51808929443359 L 15.37495994567871 18.53750610351562 L 14.41474151611328 14.74270820617676 C 14.17981147766113 13.8142786026001 14.48616027832031 12.85102844238281 15.21424102783203 12.22885799407959 L 18.18705368041992 9.688474655151367 L 14.48531150817871 9.477598190307617 C 13.48959064483643 9.420858383178711 12.62418079376221 8.779228210449219 12.28058052062988 7.842978477478027 L 10.99999809265137 4.353689193725586 M 11 1.9024658203125 C 11.38920116424561 1.9024658203125 11.77840137481689 2.120952606201172 11.93877124786377 2.557928085327148 L 13.68874073028564 7.326178550720215 C 13.82609081268311 7.700428009033203 14.17262077331543 7.957347869873047 14.57064056396484 7.98002815246582 L 19.51491165161133 8.261688232421875 C 20.41470146179199 8.31293773651123 20.79285049438477 9.434807777404785 20.10769081115723 10.02029800415039 L 16.18871116638184 13.36920833587646 C 15.89956092834473 13.61629772186279 15.77561092376709 14.006028175354 15.86891078948975 14.37474822998047 L 17.1522102355957 19.44636917114258 C 17.37789154052734 20.3382682800293 16.38106155395508 21.03595733642578 15.62035083770752 20.51852798461914 L 11.56242084503174 17.75836753845215 C 11.22301197052002 17.52749824523926 10.77698993682861 17.52749824523926 10.43758106231689 17.75836753845215 L 6.379651069641113 20.51852798461914 C 5.61894416809082 21.03595542907715 4.622100830078125 20.3382682800293 4.847780227661133 19.44636917114258 L 6.131091117858887 14.37474822998047 C 6.224380493164062 14.006028175354 6.100440979003906 13.61629772186279 5.811290740966797 13.36920833587646 L 1.892311096191406 10.02029800415039 C 1.207151412963867 9.434807777404785 1.585300445556641 8.312948226928711 2.485080718994141 8.261688232421875 L 7.429361343383789 7.98002815246582 C 7.827370643615723 7.957347869873047 8.173900604248047 7.700438499450684 8.311261177062988 7.326178550720215 L 10.0612211227417 2.557928085327148 C 10.22159576416016 2.120952606201172 10.61079883575439 1.9024658203125 11 1.9024658203125 Z" stroke="none" fill="#fff"/>
  </g>
</svg>
