<svg id="Grupo_372" data-name="Grupo 372" xmlns="http://www.w3.org/2000/svg" xmlns:xlink="http://www.w3.org/1999/xlink" width="17.047" height="16.857" viewBox="0 0 17.047 16.857">
  <defs>
    <clipPath id="clip-path">
      <rect id="Retângulo_400" data-name="Retângulo 400" width="17.047" height="16.857" fill="#e26d03"/>
    </clipPath>
  </defs>
  <g id="Grupo_371" data-name="Grupo 371" clip-path="url(#clip-path)">
    <path id="Caminho_145" data-name="Caminho 145" d="M9.029,13.029v-4.1c-.759.159-1.477.247-2.154.463a9.054,9.054,0,0,0-5.824,5.216q-.488,1.127-.98,2.251c-.031-.012-.063-.019-.062-.026.013-1.409-.057-2.825.061-4.225A9.176,9.176,0,0,1,4.187,5.632a9.218,9.218,0,0,1,4.822-1.64V.047L9.092,0l7.955,6.479L9.029,13.029m1.006-2.117L15.459,6.48,10.031,2.058V4.989A8.644,8.644,0,0,0,4.1,6.937a8.152,8.152,0,0,0-2.953,5.4l.145-.191A10.269,10.269,0,0,1,9.667,7.965c.29,0,.382.069.375.369-.021.83-.007,1.661-.007,2.579" transform="translate(0)" fill="#e26d03"/>
  </g>
</svg>
