<svg xmlns="http://www.w3.org/2000/svg" xmlns:xlink="http://www.w3.org/1999/xlink" width="87.72" height="37.723" viewBox="0 0 87.72 37.723">
  <defs>
    <clipPath id="clip-path">
      <rect id="Retângulo_46" data-name="Retângulo 46" width="87.72" height="37.723" fill="#fff"/>
    </clipPath>
  </defs>
  <g id="Grupo_22" data-name="Grupo 22" clip-path="url(#clip-path)">
    <path id="Caminho_16" data-name="Caminho 16" d="M720.233,21.313c-.3.194-.572.4-.841.621a18.4,18.4,0,0,0-2.476,2.45,24.544,24.544,0,0,0-2.262,3.124l-.043.071a.126.126,0,0,1-.12.067h-3.033c-.054,0-.109-.006-.16-.009-.044-.077.012-.128.035-.18a22.451,22.451,0,0,1,1.423-2.764,20.848,20.848,0,0,1,3.4-4.255,17.014,17.014,0,0,1,1.746-1.47c.039-.028.077-.058.114-.089.01-.008.013-.023.024-.044l-.176-.224a37.856,37.856,0,0,1-4.033-6.25A31.278,31.278,0,0,1,711.5,6.427a27.619,27.619,0,0,1-.655-3.017c-.11-.7-.2-1.4-.249-2.1-.022-.317-.045-.635-.064-.952-.006-.109,0-.219,0-.339a.677.677,0,0,1,.1-.017h2.68a.989.989,0,0,1,.108.012c.012.059.027.111.032.164a30.4,30.4,0,0,0,1.1,5.292,34.637,34.637,0,0,0,3.116,7.42,29.875,29.875,0,0,0,3.383,4.815,26.964,26.964,0,0,0,4.711,4.3c.382.274.758.558,1.15.817a26.076,26.076,0,0,0,4.476,2.344,29.105,29.105,0,0,0,4.774,1.506c.654.146,1.31.279,1.974.372.479.067.958.14,1.439.192.419.046.841.067,1.262.1.649.049,1.3.068,1.951.064.581,0,1.163-.017,1.743-.062.276-.021.553-.03.828-.055.331-.03.66-.07.99-.109.233-.028.467-.057.7-.092.383-.057.766-.11,1.147-.18q.937-.172,1.864-.394,1.451-.349,2.866-.821c.057-.019.116-.033.182-.052a.5.5,0,0,1,.02.089c.011.968.021,1.936.031,2.914-.076.035-.143.069-.212.1-.558.225-1.129.41-1.706.579a27.09,27.09,0,0,1-2.8.656c-.482.087-.969.155-1.455.221-.431.059-.864.108-1.3.152-.275.028-.552.04-.828.055-.408.021-.816.039-1.224.057-.491.022-.983.021-1.474,0-.194-.008-.388-.009-.581-.019-.387-.022-.774-.047-1.16-.073-.221-.015-.442-.031-.662-.053-.275-.027-.551-.055-.825-.092-.336-.045-.671-.095-1-.151-.49-.083-.982-.163-1.468-.264a31.917,31.917,0,0,1-3.322-.881,34.288,34.288,0,0,1-7.481-3.484,37.978,37.978,0,0,1-4.232-3.032c-.362-.3-.695-.634-1.041-.953-.05-.046-.1-.094-.152-.144" transform="translate(-665.442 0)" fill="#fff"/>
    <path id="Caminho_17" data-name="Caminho 17" d="M400.042,169.087a.432.432,0,0,1,.083-.023h2.086c.076.049.084.123.107.186q.567,1.547,1.131,3.1l1.636,4.478c.023.064.05.126.076.191.052-.022.034-.061.032-.088-.012-.186-.028-.372-.041-.559q-.054-.766-.106-1.532c-.008-.11-.015-.221-.017-.332q-.028-1.6-.054-3.2-.017-1-.032-1.992c0-.075,0-.15,0-.233a.652.652,0,0,1,.109-.021h1.932a.764.764,0,0,1,.091.012c.008.04.018.079.021.118s0,.083,0,.124v10.967a.616.616,0,0,1-.108.021q-1.028,0-2.057,0a.536.536,0,0,1-.076-.013q-1.434-3.865-2.866-7.748c-.059.023-.041.063-.039.09q.025.456.055.911c.022.345.047.69.068,1.035.072,1.209.071,2.42.09,3.631.01.623.023,1.245.034,1.868,0,.068,0,.135-.005.188a.231.231,0,0,1-.027.029.039.039,0,0,1-.019.005l-1.952.005c-.041,0-.082,0-.134-.007a.957.957,0,0,1-.021-.118c0-.062,0-.124,0-.187V169.087Z" transform="translate(-374.654 -158.333)" fill="#fff"/>
    <path id="Caminho_18" data-name="Caminho 18" d="M193.855,171.123c0-.256,0-.512,0-.768,0-.505.032-1.009.07-1.512a10.841,10.841,0,0,1,.134-1.132,4.481,4.481,0,0,1,.329-1.045,2.523,2.523,0,0,1,1.6-1.4,4.395,4.395,0,0,1,.893-.174,6.246,6.246,0,0,1,.912-.029,4.713,4.713,0,0,1,1.266.2,2.472,2.472,0,0,1,1.583,1.393,4.568,4.568,0,0,1,.356,1.273,19.658,19.658,0,0,1,.147,2.587q0,1.162-.026,2.324a9.078,9.078,0,0,1-.118,1.3,4.519,4.519,0,0,1-.3,1.032,2.518,2.518,0,0,1-1.555,1.43,4.261,4.261,0,0,1-1.1.212,6.788,6.788,0,0,1-1.12-.006,3.661,3.661,0,0,1-1.487-.411,2.5,2.5,0,0,1-1.087-1.161,4.516,4.516,0,0,1-.38-1.309,16.6,16.6,0,0,1-.121-2.132c0-.221,0-.443,0-.664m2.239-.178h-.01c0,.56,0,1.121,0,1.681a5.793,5.793,0,0,0,.052.869,3.769,3.769,0,0,0,.228.859.991.991,0,0,0,.67.6,1.859,1.859,0,0,0,.74.052,1.08,1.08,0,0,0,.879-.613,1.75,1.75,0,0,0,.187-.568,7.8,7.8,0,0,0,.08-1.075q0-1.681,0-3.362a8.028,8.028,0,0,0-.086-1.137,2.1,2.1,0,0,0-.362-.918.982.982,0,0,0-.584-.4,1.605,1.605,0,0,0-.781.011,1.033,1.033,0,0,0-.591.4,1.781,1.781,0,0,0-.339.771,4.991,4.991,0,0,0-.083.846c0,.664,0,1.328,0,1.992" transform="translate(-181.552 -154.58)" fill="#fff"/>
    <path id="Caminho_19" data-name="Caminho 19" d="M1265.491,169.1q0,.612,0,1.225a14.473,14.473,0,0,1-.092,1.553,4.837,4.837,0,0,1-.324,1.282,2.554,2.554,0,0,1-1.693,1.531,4.531,4.531,0,0,1-1.018.178,6.717,6.717,0,0,1-1.141-.01,3.583,3.583,0,0,1-1.538-.451,2.493,2.493,0,0,1-1-1.081,4.766,4.766,0,0,1-.427-1.53,18.965,18.965,0,0,1-.1-2.2c0-.643,0-1.287.015-1.93a14.386,14.386,0,0,1,.169-1.921,4.493,4.493,0,0,1,.356-1.166,2.527,2.527,0,0,1,1.531-1.372,4.141,4.141,0,0,1,.848-.185,7.163,7.163,0,0,1,1.244-.029,3.917,3.917,0,0,1,1.217.232,2.456,2.456,0,0,1,1.431,1.307,4.713,4.713,0,0,1,.39,1.413,22.046,22.046,0,0,1,.132,2.9c0,.083,0,.166,0,.249Zm-2.167-.049c0-.442,0-.885,0-1.327a11.3,11.3,0,0,0-.08-1.448,2.22,2.22,0,0,0-.425-1.087,1.024,1.024,0,0,0-.558-.373,1.7,1.7,0,0,0-.7-.029,1.138,1.138,0,0,0-.818.511,1.97,1.97,0,0,0-.325.842,8.563,8.563,0,0,0-.082,1.178q0,1.618,0,3.235a6.81,6.81,0,0,0,.044.89,3.917,3.917,0,0,0,.246.982,1.061,1.061,0,0,0,.77.66,2.052,2.052,0,0,0,.783.029,1.062,1.062,0,0,0,.778-.5,1.92,1.92,0,0,0,.215-.446,2.631,2.631,0,0,0,.11-.652c.023-.372.035-.745.041-1.118.007-.449,0-.9,0-1.348" transform="translate(-1178.317 -152.642)" fill="#fff"/>
    <path id="Caminho_20" data-name="Caminho 20" d="M1061.855,178.388c-.167.024-2.036.025-2.23,0-.106-.466-.183-.942-.278-1.415s-.17-.937-.273-1.4c-.167-.026-2.148-.031-2.386-.006a.7.7,0,0,0-.061.209q-.252,1.271-.5,2.541a.575.575,0,0,1-.024.068.492.492,0,0,1-.094.018q-1.039,0-2.077,0a.784.784,0,0,1-.1-.014.769.769,0,0,1,.01-.089q1.321-5.576,2.643-11.152a.813.813,0,0,1,.034-.095l.021-.01a.055.055,0,0,1,.019-.006l2.679,0a.689.689,0,0,1,.082.007c.006,0,.012.007.018.01a.085.085,0,0,1,.016.013.045.045,0,0,1,.009.019q1.251,5.582,2.5,11.163a.613.613,0,0,1,.009.062.335.335,0,0,1,0,.041.063.063,0,0,1-.005.02c0,.006-.005.012-.008.018M1057,173.8c.213.01.4,0,.584.005s.388,0,.581,0a3.436,3.436,0,0,0,.566-.017l-.826-5.127c-.017.012-.036.017-.037.026-.288,1.694-.576,3.389-.868,5.113" transform="translate(-986.946 -156.435)" fill="#fff"/>
    <path id="Caminho_21" data-name="Caminho 21" d="M4.62,172.52c.207-.028,2.04-.026,2.216,0a.18.18,0,0,1,.012.054c-.038.427-.07.855-.119,1.28a4.616,4.616,0,0,1-.366,1.377c-.057.126-.12.249-.188.369a2.292,2.292,0,0,1-1.521,1.127,4.247,4.247,0,0,1-1.277.107,6,6,0,0,1-.885-.1A2.9,2.9,0,0,1,1,175.969a2.315,2.315,0,0,1-.417-.565,4.35,4.35,0,0,1-.457-1.477A16.46,16.46,0,0,1,0,171.753c0-.373.005-.747,0-1.121-.011-.7.035-1.4.093-2.093a5.647,5.647,0,0,1,.2-1.226,6.439,6.439,0,0,1,.226-.623,2.482,2.482,0,0,1,1.591-1.414,4.121,4.121,0,0,1,.872-.173,5.685,5.685,0,0,1,.746-.033,4.123,4.123,0,0,1,1.042.159,2.486,2.486,0,0,1,1.708,1.589,4.486,4.486,0,0,1,.244,1.153c.024.241.04.482.058.723,0,.068,0,.137,0,.21a.4.4,0,0,1-.086.021H4.7a.51.51,0,0,1-.072-.012A.692.692,0,0,1,4.6,168.7c-.012-.068-.015-.137-.022-.206a6.868,6.868,0,0,0-.122-.862,1.241,1.241,0,0,0-.149-.362.71.71,0,0,0-.633-.367,1.583,1.583,0,0,0-.59.1.92.92,0,0,0-.548.534,3.252,3.252,0,0,0-.24.941c-.028.316-.045.635-.046.953-.005,1.114,0,2.227,0,3.341a5.389,5.389,0,0,0,.123,1.194,1.725,1.725,0,0,0,.274.6,1.092,1.092,0,0,0,.86.471,1.641,1.641,0,0,0,.208,0,.646.646,0,0,0,.5-.253,1.347,1.347,0,0,0,.268-.578,6.1,6.1,0,0,0,.1-.7c.023-.289.026-.58.037-.871,0-.034.006-.068.01-.114" transform="translate(0 -154.595)" fill="#fff"/>
    <path id="Caminho_22" data-name="Caminho 22" d="M610.959,173.33c.005.045.015.092.016.139a13.4,13.4,0,0,1-.021,1.576.376.376,0,0,1-.221.024q-1.464,0-2.929,0h-.219c-.063.059-.043.125-.043.184,0,.54,0,1.079,0,1.619v1.446a.388.388,0,0,0,.235.031q1.61,0,3.219,0h.236a.579.579,0,0,1,.021.1q0,.768,0,1.536a.735.735,0,0,1-.013.093c-.063,0-.123.011-.183.011H605.4a1.031,1.031,0,0,1-.025-.124c0-.055,0-.111,0-.166q0-5.334,0-10.667a.732.732,0,0,1,.022-.274c.042,0,.082-.013.122-.014,1.073-.027,5.5-.012,5.707.019a.076.076,0,0,1,.015.014.046.046,0,0,1,.006.02c0,.034.008.069.008.1q0,.757,0,1.515a.292.292,0,0,1-.014.061.455.455,0,0,1-.244.026h-3.178c-.082,0-.164,0-.255,0a.879.879,0,0,0-.02.128q0,1.214,0,2.428c0,.033.005.067.008.106a.48.48,0,0,0,.227.023q.924,0,1.849,0h1.122a.421.421,0,0,1,.211.026" transform="translate(-566.953 -158.124)" fill="#fff"/>
    <path id="Caminho_23" data-name="Caminho 23" d="M884.159,172.8c-.608-.632-1.2-1.25-1.8-1.88.042-.021.064-.035.088-.044a11.354,11.354,0,0,0,2.067-1.052,19.548,19.548,0,0,0,2.69-2.046,26.88,26.88,0,0,0,2.944-3.123c.048-.059.1-.117.142-.172.161-.024,2.8-.032,3.1-.01.038.044,0,.079-.019.11-.182.278-.36.558-.55.83a28.585,28.585,0,0,1-2.449,3.061,19.568,19.568,0,0,1-3.173,2.823,11.318,11.318,0,0,1-2.516,1.349c-.123.046-.247.088-.372.128a1.162,1.162,0,0,1-.149.027" transform="translate(-826.364 -154.02)" fill="#fff"/>
    <path id="Caminho_24" data-name="Caminho 24" d="M1233.322,521.483c-.284,0-.56,0-.826,0a.162.162,0,0,1-.054-.158c.006-.6.01-1.2.018-1.806s.021-1.2.03-1.8c0-.075,0-.15,0-.229-.078.014-.076.07-.085.114-.073.331-.144.662-.216.993q-.294,1.347-.588,2.694c-.013.06-.033.118-.052.185a3.469,3.469,0,0,1-.527.008c-.02-.062-.043-.119-.056-.178q-.316-1.417-.629-2.834c-.057-.256-.113-.513-.17-.769-.013-.059-.033-.117-.049-.176-.062.008-.052.05-.052.078q0,.363,0,.726.007.571.016,1.141c.01.609.023,1.217.033,1.826,0,.054-.005.108-.008.159a3.6,3.6,0,0,1-.858.016.37.37,0,0,1-.023-.075c0-.048,0-.1,0-.145q0-2.169,0-4.338c0-.068.006-.136.01-.21a.447.447,0,0,1,.106-.03q.613,0,1.226,0a.372.372,0,0,1,.074.018,1.141,1.141,0,0,1,.049.146q.273,1.373.543,2.746a.667.667,0,0,0,.076.237,1.274,1.274,0,0,0,.058-.168q.173-.938.343-1.876c.058-.32.116-.639.175-.959a.848.848,0,0,1,.037-.114,5.554,5.554,0,0,1,1.224-.035.247.247,0,0,1,.188.047c0,.03.011.07.012.11.023.791.009,4.435-.021,4.657" transform="translate(-1151.212 -483.872)" fill="#fff"/>
    <path id="Caminho_25" data-name="Caminho 25" d="M1142.448,517.517c0,.2,0,.4,0,.6a3.792,3.792,0,0,1-.087.865,2,2,0,0,1-.083.256,1.074,1.074,0,0,1-.765.67,2.221,2.221,0,0,1-.741.063,2.538,2.538,0,0,1-.451-.063,1.091,1.091,0,0,1-.786-.676,2.283,2.283,0,0,1-.148-.623,12.79,12.79,0,0,1-.033-1.6,4.826,4.826,0,0,1,.114-1.07,2.273,2.273,0,0,1,.075-.237,1.079,1.079,0,0,1,.846-.716,2.578,2.578,0,0,1,1.071,0,1.055,1.055,0,0,1,.8.658,2.107,2.107,0,0,1,.142.561,7.035,7.035,0,0,1,.048.953c0,.118,0,.235,0,.353m-2.188-.1h.006c0,.221,0,.443,0,.664,0,.138.007.276.015.414a1.34,1.34,0,0,0,.114.46.444.444,0,0,0,.363.274,1.317,1.317,0,0,0,.227.01.49.49,0,0,0,.46-.329.7.7,0,0,0,.058-.2c.019-.178.037-.358.039-.537q.008-.633,0-1.265c0-.2-.019-.4-.039-.6a.863.863,0,0,0-.164-.42.451.451,0,0,0-.19-.156.586.586,0,0,0-.752.25,1.016,1.016,0,0,0-.115.437c-.01.332-.016.663-.023,1" transform="translate(-1067.039 -482.256)" fill="#fff"/>
    <path id="Caminho_26" data-name="Caminho 26" d="M1053.914,521.547a.592.592,0,0,1-.033-.269c0-.553,0-1.107,0-1.66a.416.416,0,0,0-.031-.241,7.017,7.017,0,0,0-1.178-.006c-.055.064-.035.143-.035.217,0,.567,0,1.134,0,1.7v.232a1.537,1.537,0,0,1-.441.025c-.138,0-.276,0-.417,0a.7.7,0,0,1-.029-.11c0-.055,0-.111,0-.166q0-2.127,0-4.254a.426.426,0,0,1,.032-.26,2.965,2.965,0,0,1,.827,0,.344.344,0,0,1,.028.219c0,.463,0,.927,0,1.39,0,.075,0,.151.006.234a.36.36,0,0,0,.1.033c.353,0,.706,0,1.059,0a.165.165,0,0,0,.043-.014c.059-.06.039-.14.04-.213,0-.47,0-.941,0-1.411,0-.075.007-.149.01-.23a.65.65,0,0,1,.108-.03,3.662,3.662,0,0,1,.733.024.975.975,0,0,1,.026.112,1.03,1.03,0,0,1,0,.124q0,2.148,0,4.3c0,.075,0,.151-.007.23a1.315,1.315,0,0,1-.418.026c-.138.005-.276,0-.422,0" transform="translate(-984.995 -483.933)" fill="#fff"/>
    <path id="Caminho_27" data-name="Caminho 27" d="M1336.1,516.844a.685.685,0,0,1,.107-.018h2.221a.628.628,0,0,1,.1.018.79.79,0,0,1,.027.327c0,.11,0,.219,0,.318a.235.235,0,0,1-.191.041c-.394,0-.789,0-1.183,0a.36.36,0,0,0-.2.026.157.157,0,0,0-.023.054q-.005.487-.006.974a.7.7,0,0,0,.016.111c.065.066.138.048.2.048.339,0,.678,0,1.017,0a.562.562,0,0,1,.237.025,6.187,6.187,0,0,1,.009.626c-.058.065-.124.049-.184.049-.346,0-.692,0-1.038,0-.262,0-.263,0-.263.265,0,.318,0,.636,0,.954a.4.4,0,0,0,.033.231,2.908,2.908,0,0,0,.509.015c.173,0,.346,0,.519,0h.513a1.883,1.883,0,0,1,.014.7c-.163.029-2.007.04-2.434.014a.556.556,0,0,1-.037-.107.923.923,0,0,1,0-.145q0-2.137,0-4.273a.5.5,0,0,1,.037-.262" transform="translate(-1251.276 -484.026)" fill="#fff"/>
    <path id="Caminho_28" data-name="Caminho 28" d="M1078.9,102.419c.023.013.046.019.057.034.169.236.336.473.505.712a3.551,3.551,0,0,1-.632,1.046,1.249,1.249,0,0,1-.7.411,1.121,1.121,0,0,1-.49-.043,3.349,3.349,0,0,1-.742-.316c-.159-.085-.314-.175-.475-.254a3.852,3.852,0,0,0-.4-.167.509.509,0,0,0-.555.12,1.374,1.374,0,0,0-.278.359c-.09.171-.168.348-.254.521-.023.047-.028.107-.078.139a3.972,3.972,0,0,1-.548-.738,3.4,3.4,0,0,1,.68-1.185,1.354,1.354,0,0,1,.107-.1,1.069,1.069,0,0,1,1.027-.226,3.582,3.582,0,0,1,.723.306c.221.115.439.235.663.341a3.18,3.18,0,0,0,.351.12.377.377,0,0,0,.354-.063,1.441,1.441,0,0,0,.254-.241,2.626,2.626,0,0,0,.336-.57l.1-.209" transform="translate(-1006.132 -95.919)" fill="#fff"/>
  </g>
</svg>
