<svg xmlns="http://www.w3.org/2000/svg" xmlns:xlink="http://www.w3.org/1999/xlink" width="12.176" height="13.692" viewBox="0 0 12.176 13.692">
  <defs>
    <clipPath id="clip-path">
      <rect id="Retângulo_294" data-name="Retângulo 294" width="12.176" height="13.692" fill="#707070"/>
    </clipPath>
  </defs>
  <g id="Grupo_329" data-name="Grupo 329" clip-path="url(#clip-path)">
    <path id="Caminho_135" data-name="Caminho 135" d="M21.329,69.15H18.193A1.087,1.087,0,0,1,17,68.081q-.351-3.673-.7-7.346-.064-.667-.135-1.332c-.034-.315.1-.539.361-.582a.44.44,0,0,1,.539.441c.1.9.181,1.8.269,2.693q.219,2.24.435,4.481c.048.5.1,1,.136,1.5.015.207.083.3.311.3q3.108-.01,6.216,0c.224,0,.3-.089.315-.3q.361-3.787.732-7.572c.037-.378.063-.757.113-1.134a.438.438,0,0,1,.531-.418.463.463,0,0,1,.371.55q-.364,3.772-.727,7.544-.056.581-.113,1.163a1.088,1.088,0,0,1-1.189,1.074H21.329" transform="translate(-15.239 -55.458)" fill="#707070"/>
    <path id="Caminho_136" data-name="Caminho 136" d="M3.646,1.827c0-.261-.005-.487,0-.713A1.075,1.075,0,0,1,4.792,0q1.3,0,2.594,0A1.074,1.074,0,0,1,8.528,1.115c.007.226,0,.452,0,.712h.328q1.382,0,2.765,0c.329,0,.546.177.554.445s-.216.467-.56.467H.558C.216,2.74-.01,2.546,0,2.27s.223-.442.555-.443c1.015,0,2.031,0,3.091,0m3.965-.008a4.8,4.8,0,0,0-.01-.675c-.012-.085-.139-.217-.215-.219Q6.09.9,4.793.923a.3.3,0,0,0-.216.188,5.887,5.887,0,0,0-.01.708Z" transform="translate(0 -0.001)" fill="#707070"/>
    <path id="Caminho_137" data-name="Caminho 137" d="M69.563,80.864c0-.1,0-.209,0-.313a.45.45,0,0,1,.414-.487.461.461,0,0,1,.494.445c.035.359.046.72.068,1.081q.11,1.864.219,3.727c.007.123.017.247.012.37a.455.455,0,1,1-.91.014c-.036-.5-.066-1-.1-1.508q-.1-1.665-.191-3.329Z" transform="translate(-65.597 -75.497)" fill="#707070"/>
    <path id="Caminho_138" data-name="Caminho 138" d="M124.027,80.883q-.143,2.4-.288,4.809a.471.471,0,0,1-.475.467.462.462,0,0,1-.434-.5c.058-1.12.127-2.239.192-3.358.03-.522.06-1.043.092-1.565a1.379,1.379,0,0,1,.044-.337.447.447,0,0,1,.877.117c0,.123,0,.247,0,.37Z" transform="translate(-115.827 -75.504)" fill="#707070"/>
  </g>
</svg>
