<svg xmlns="http://www.w3.org/2000/svg" xmlns:xlink="http://www.w3.org/1999/xlink" width="16.207" height="7.907" viewBox="0 0 16.207 7.907">
  <defs>
    <clipPath id="clip-path">
      <rect id="Retângulo_176" data-name="Retângulo 176" width="16.207" height="7.907" transform="translate(0 0)" fill="#feae0f"/>
    </clipPath>
  </defs>
  <g id="Aluguel_de_moveis" data-name="Aluguel de moveis" transform="translate(0 0)">
    <g id="Grupo_201" data-name="Grupo 201" transform="translate(0 0)" clip-path="url(#clip-path)">
      <path id="Caminho_105" data-name="Caminho 105" d="M7.193.429c.054.638.122,1.639.2,2.5H4.646l.376-.551a1.857,1.857,0,0,0-2.584.22,1.949,1.949,0,0,0,.008,2.687,1.975,1.975,0,0,0,2.745.205C5.834,4.933,6.405,4.291,7,3.682c.844-.856,1.662-1.739,2.532-2.568a3.9,3.9,0,0,1,5.592.133A3.934,3.934,0,0,1,14.991,6.8a3.769,3.769,0,0,1-4.574.585A24.612,24.612,0,0,1,8.163,5.64L9.711,4.4a18.072,18.072,0,0,0,1.375,1.177,1.931,1.931,0,0,0,2.123.134,1.855,1.855,0,0,0,1.054-1.673,1.882,1.882,0,0,0-1.2-1.9,1.86,1.86,0,0,0-2.146.374C9.54,3.884,8.176,5.278,6.792,6.652A3.927,3.927,0,0,1,2.3,7.511,3.9,3.9,0,0,1,.006,3.636a3.989,3.989,0,0,1,5.3-3.42A8.159,8.159,0,0,1,6.466.832a3.406,3.406,0,0,1,.727-.4" transform="translate(0 0)" fill="#feae0f"/>
    </g>
  </g>
</svg>
