<svg xmlns="http://www.w3.org/2000/svg" width="11.997" height="12" viewBox="0 0 11.997 12">
  <g id="Escritório" transform="translate(-275.576 -171.26)">
    <path id="Caminho_38" data-name="Caminho 38" d="M16.4,405.157v5.7c0,.063,0,.125,0,.187-.007.279-.13.437-.346.442s-.362-.156-.363-.448q0-2.426,0-4.851v-.324H6.552v.288q0,2.367,0,4.734c0,.078,0,.157,0,.234a.352.352,0,1,1-.7.007c-.007-.078,0-.156,0-.234q0-2.719,0-5.437v-.318c-.124,0-.23,0-.335,0-.241-.014-.387-.149-.388-.352a.353.353,0,0,1,.385-.353c.3-.009.609,0,.914,0h3.623v-.684c-.086,0-.169-.011-.252-.011-.469,0-.937,0-1.406,0-.292,0-.427-.114-.428-.382q-.01-1.746,0-3.492a.344.344,0,0,1,.391-.369q2.765,0,5.531,0a.358.358,0,0,1,.407.38c0,.062,0,.125,0,.188,0,1.07,0,2.14,0,3.211,0,.351-.115.464-.466.466-.537,0-1.074,0-1.627,0v.7h4.387a1.337,1.337,0,0,1,.256.016.343.343,0,0,1,0,.675,4.36,4.36,0,0,1-.44.035" transform="translate(270.457 -228.228)" fill="#feae0f"/>
    <path id="Caminho_39" data-name="Caminho 39" d="M128.1,600.239h1.748c0,.251,0,.5,0,.744s.006.484,0,.726c-.009.266-.127.395-.39.4-1.147.006-2.294,0-3.441,0-.215,0-.375-.1-.381-.328-.014-.505,0-1.011,0-1.533h1.743c.041.271-.081.662.351.67.451.008.337-.392.377-.675" transform="translate(155.602 -419.571)" fill="#feae0f"/>
    <path id="Caminho_40" data-name="Caminho 40" d="M128.376,550.258h1.735v1.614h-4.193v-1.607h1.73c.048.271-.081.689.392.666.416-.02.3-.394.337-.673" transform="translate(155.321 -371.932)" fill="#feae0f"/>
  </g>
</svg>
