<svg id="Impermeabilização" xmlns="http://www.w3.org/2000/svg" xmlns:xlink="http://www.w3.org/1999/xlink" width="16.539" height="16.566" viewBox="0 0 16.539 16.566">
  <defs>
    <clipPath id="clip-path">
      <rect id="Retângulo_175" data-name="Retângulo 175" width="16.539" height="16.566" fill="#feae0f"/>
    </clipPath>
  </defs>
  <g id="Grupo_199" data-name="Grupo 199" clip-path="url(#clip-path)">
    <path id="Caminho_103" data-name="Caminho 103" d="M69.984,10.429a41.622,41.622,0,0,1,5.272,8.017,5.476,5.476,0,0,1-3.867,7.579,5.859,5.859,0,0,1-7.022-4.091,5.07,5.07,0,0,1,.392-3.534,32.442,32.442,0,0,1,3.521-5.73c.537-.738,1.1-1.455,1.7-2.241m.867,13.085a2.59,2.59,0,0,0,3.122-1.756,2.378,2.378,0,0,0-.818-3.013,5.342,5.342,0,0,1-2.3,4.769" transform="translate(-59.224 -9.62)" fill="#feae0f"/>
    <path id="Caminho_104" data-name="Caminho 104" d="M3.318,11.515A4,4,0,0,1,.294,8.991,3.615,3.615,0,0,1,.253,6.235a21.089,21.089,0,0,1,2.6-4.518C3.255,1.148,3.683.6,4.127,0c.171.218.321.391.451.579.62.89,1.23,1.787,1.857,2.672a.478.478,0,0,1,0,.617c-.72,1.192-1.457,2.378-2.1,3.611a7.561,7.561,0,0,0-1.012,4.037" transform="translate(0 0.001)" fill="#feae0f"/>
  </g>
</svg>
