<svg id="Venda_corporativa" data-name="Venda corporativa" xmlns="http://www.w3.org/2000/svg" xmlns:xlink="http://www.w3.org/1999/xlink" width="16.22" height="16.203" viewBox="0 0 16.22 16.203">
  <defs>
    <clipPath id="clip-path">
      <rect id="Retângulo_177" data-name="Retângulo 177" width="16.22" height="16.203" fill="#feae0f"/>
    </clipPath>
  </defs>
  <g id="Grupo_203" data-name="Grupo 203" clip-path="url(#clip-path)">
    <path id="Caminho_106" data-name="Caminho 106" d="M29.442,32.529l8.938-8.938,3.9,3.9-8.935,8.938-3.9-3.9" transform="translate(-27.578 -22.097)" fill="#feae0f"/>
    <path id="Caminho_107" data-name="Caminho 107" d="M5.1,179.393c-1.517.433-3.052.873-4.589,1.308-.314.089-.572-.114-.492-.4.436-1.566.889-3.126,1.327-4.658L5.1,179.393" transform="translate(0 -164.518)" fill="#feae0f"/>
    <path id="Caminho_108" data-name="Caminho 108" d="M182.42,4.909,178.407.894A8.331,8.331,0,0,1,179.2.178,1,1,0,0,1,180.477.3q1.288,1.26,2.549,2.549a1,1,0,0,1,.04,1.4c-.2.232-.427.433-.645.652" transform="translate(-167.112 -0.001)" fill="#feae0f"/>
  </g>
</svg>
