<svg xmlns="http://www.w3.org/2000/svg" width="16.243" height="12" viewBox="0 0 16.243 12">
  <g id="Sala_de_estar" data-name="Sala de estar" transform="translate(-340.255 -122.752)">
    <path id="Caminho_31" data-name="Caminho 31" d="M284.966,66.2h-7.648c-.162-.819-.274-1.634-.494-2.42a3.286,3.286,0,0,0-1.494-1.89c.778-1.988,3.262-3.444,5.8-3.419,2.709.027,5.18,1.4,5.911,3.325-1.723.954-1.953,2.642-2.076,4.4" transform="translate(67.28 64.278)" fill="#feae0f"/>
    <path id="Caminho_32" data-name="Caminho 32" d="M242.9,125.322c0,.367.006.714,0,1.061-.008.37-.142.473-.589.47-.418,0-.556-.113-.563-.467s0-.695,0-1.083c-.23,0-.438,0-.646,0a.877.877,0,0,1-.846-1.05,9.1,9.1,0,0,0,.224-2.706c-.081-.67-.381-.919-1.053-.88a1.057,1.057,0,0,1-1.17-.91,1.022,1.022,0,0,1,1.06-1.061,2.03,2.03,0,0,1,1.766,1.109,4.259,4.259,0,0,1,.6,2.046c.034.358.05.717.063,1.076a.412.412,0,0,0,.4.441,2.359,2.359,0,0,0,.285.007h7.9c.589,0,.666-.088.685-.678a6.974,6.974,0,0,1,.438-2.482,2.763,2.763,0,0,1,1.26-1.376,1.27,1.27,0,0,1,1.62.328.979.979,0,0,1-.787,1.507,1.977,1.977,0,0,1-.222-.006c-.666-.039-.966.215-1.047.888a9.077,9.077,0,0,0,.226,2.705.877.877,0,0,1-.853,1.044c-.2,0-.4,0-.64,0,0,.325,0,.627,0,.93,0,.507-.106.621-.57.624-.483,0-.585-.108-.586-.636,0-.294,0-.587,0-.9Z" transform="translate(102.007 7.895)" fill="#feae0f"/>
  </g>
</svg>
