<svg id="Componente_47_1" data-name="Componente 47 – 1" xmlns="http://www.w3.org/2000/svg" width="44" height="44" viewBox="0 0 44 44">
  <g id="Retângulo_54" data-name="Retângulo 54" fill="none" stroke="#e26d03" stroke-width="1.5">
    <rect width="44" height="44" rx="16" stroke="none"/>
    <rect x="0.75" y="0.75" width="42.5" height="42.5" rx="15.25" fill="none"/>
  </g>
  <path id="Caminho_45" data-name="Caminho 45" d="M19.918,524.338l-11.255,5.7.028,11.391,11.26,5.63,11.227-5.6v-11.4Zm0,10.577-2.145-1.063,8.649-4.626,2.474,1.258Zm-4.4,1.4c-.059-.077-.117-.155-.174-.232l-.233-.318-.393.032c-.309.025-.64.039-.9.036,0-.659,0-1.616,0-2.363l1.712.848c0,.545,0,1.311-.017,2m-.862-4.005,8.683-4.649,1.554.79-8.668,4.636Zm7.151-5.427-8.7,4.659-2.162-1.071,8.975-4.548Zm-11.73,4.732,2.336,1.157c0,.908,0,2.971,0,3.625a.766.766,0,0,0,.248.562c.153.142.379.35,1.781.271.864,1.131,1.279,1.373,1.606,1.373a.886.886,0,0,0,.22-.031.774.774,0,0,0,.575-.667c.077-.578.1-1.912.1-2.889l2.274,1.127.026,8.993L10.1,540.56Zm10.576,13.525-.026-9,9.141-4.512v8.96Z" transform="translate(1.674 -514.338)" fill="#e26d03"/>
</svg>
