<svg id="Componente_43_1" data-name="Componente 43 – 1" xmlns="http://www.w3.org/2000/svg" width="44" height="44" viewBox="0 0 44 44">
  <g id="Retângulo_58" data-name="Retângulo 58" fill="none" stroke="#e26d03" stroke-width="1.5">
    <rect width="44" height="44" rx="16" stroke="none"/>
    <rect x="0.75" y="0.75" width="42.5" height="42.5" rx="15.25" fill="none"/>
  </g>
  <g id="Grupo_44" data-name="Grupo 44" transform="translate(-227.162 -248.194)">
    <path id="Caminho_10" data-name="Caminho 10" d="M65.066,9.67A19.292,19.292,0,0,1,61.3,20.8a25.567,25.567,0,0,1-5.669,5.839c-.223.166-.39.277-.672.059-4.486-3.461-7.814-7.722-9.106-13.344a11.386,11.386,0,0,1,.727-8.119A9.794,9.794,0,0,1,64.917,8.133c.1.6.119,1.214.149,1.536M63.3,9.991c-.042-.442-.07-.885-.129-1.325A7.995,7.995,0,0,0,47.588,7.5a11.432,11.432,0,0,0,.288,6.512,22.3,22.3,0,0,0,7.089,10.42c.275.243.455.152.651-.061,1.331-1.439,2.776-2.792,3.967-4.339A17.125,17.125,0,0,0,63.3,9.991" transform="translate(193.408 257.542)" fill="#e26d03"/>
    <path id="Caminho_11" data-name="Caminho 11" d="M98.865,58.281A5.153,5.153,0,1,1,103.99,53.1a5.152,5.152,0,0,1-5.126,5.182m-3.118-5.156a3.09,3.09,0,1,0,3.125-3.087,3.114,3.114,0,0,0-3.125,3.087" transform="translate(149.831 214.487)" fill="#e26d03"/>
  </g>
</svg>
