<svg id="Componente_46_1" data-name="Componente 46 – 1" xmlns="http://www.w3.org/2000/svg" width="44" height="44" viewBox="0 0 44 44">
  <g id="Retângulo_54" data-name="Retângulo 54" fill="none" stroke="#e26d03" stroke-width="1.5">
    <rect width="44" height="44" rx="16" stroke="none"/>
    <rect x="0.75" y="0.75" width="42.5" height="42.5" rx="15.25" fill="none"/>
  </g>
  <g id="icon_whats" transform="translate(12.135 10.834)">
    <path id="WhatsApp" d="M21.587,10.452a10.615,10.615,0,0,1-15.72,9.207L0,21.524l1.913-5.642a10.407,10.407,0,0,1-1.521-5.43,10.6,10.6,0,1,1,21.2,0ZM10.99,1.611a8.885,8.885,0,0,0-8.91,8.841,8.748,8.748,0,0,0,1.7,5.183L2.664,18.919l3.424-1.088A8.919,8.919,0,0,0,19.9,10.453a8.886,8.886,0,0,0-8.91-8.841Zm5.352,11.263c-.066-.107-.239-.17-.5-.3s-1.537-.753-1.775-.838-.412-.129-.585.129-.671.838-.823,1.01-.3.194-.566.065a7.11,7.11,0,0,1-2.085-1.279A7.771,7.771,0,0,1,8.566,9.875c-.152-.258-.016-.4.113-.525.117-.113.26-.3.39-.452a1.728,1.728,0,0,0,.26-.43.469.469,0,0,0-.021-.452c-.065-.129-.585-1.4-.8-1.913s-.433-.43-.584-.43-.325-.021-.5-.021a.962.962,0,0,0-.693.322,2.885,2.885,0,0,0-.909,2.149,4.987,4.987,0,0,0,1.06,2.666,10.63,10.63,0,0,0,4.438,3.891c2.641,1.032,2.641.687,3.118.644A2.628,2.628,0,0,0,16.191,14.1a2.149,2.149,0,0,0,.15-1.223Z" transform="translate(0 0)" fill="#e26d03"/>
  </g>
</svg>
