<svg id="Grupo_85" data-name="Grupo 85" xmlns="http://www.w3.org/2000/svg" xmlns:xlink="http://www.w3.org/1999/xlink" width="13" height="9.141" viewBox="0 0 13 9.141">
  <defs>
    <clipPath id="clip-path">
      <rect id="Retângulo_108" data-name="Retângulo 108" width="13" height="9.141" fill="#e26d03"/>
    </clipPath>
  </defs>
  <g id="Grupo_85-2" data-name="Grupo 85" clip-path="url(#clip-path)">
    <path id="Caminho_90" data-name="Caminho 90" d="M6.506,0h5.229A1.154,1.154,0,0,1,13,1.258q0,3.313,0,6.625A1.155,1.155,0,0,1,11.734,9.14H1.252A1.151,1.151,0,0,1,0,7.9Q0,4.57,0,1.245A1.152,1.152,0,0,1,1.252,0Q3.879,0,6.506,0M1.336.771c.041.054.054.076.072.093Q3.531,2.976,5.658,5.086a1.134,1.134,0,0,0,1.726-.04Q9.458,2.991,11.526.93a2.008,2.008,0,0,0,.128-.159ZM1.4,8.36H11.552L8.386,5.119c-.166.17-.321.337-.485.5a1.9,1.9,0,0,1-2.8,0c-.167-.163-.323-.337-.5-.523L1.4,8.36m-.625-7V7.791L3.947,4.565.776,1.359M9.052,4.553,12.22,7.775V1.35l-3.168,3.2" transform="translate(0 0)" fill="#e26d03"/>
  </g>
</svg>
