<svg xmlns="http://www.w3.org/2000/svg" width="14.013" height="13" viewBox="0 0 14.013 13">
  <path id="WhatsApp" d="M16.049,12.068a20.2,20.2,0,0,0-2.187-1.033c-.293-.105-.507-.159-.721.159s-.827,1.033-1.014,1.245-.374.239-.7.08a8.761,8.761,0,0,1-2.569-1.576,9.576,9.576,0,0,1-1.781-2.2c-.187-.318-.02-.488.139-.647.144-.139.321-.371.48-.558a2.129,2.129,0,0,0,.32-.53.578.578,0,0,0-.026-.558c-.08-.159-.721-1.721-.987-2.358s-.533-.53-.72-.53-.4-.026-.613-.026a1.185,1.185,0,0,0-.854.4A3.554,3.554,0,0,0,3.7,6.583,6.146,6.146,0,0,0,5.007,9.867a13.1,13.1,0,0,0,5.468,4.8c3.255,1.272,3.255.847,3.842.794a3.238,3.238,0,0,0,2.161-1.51C16.685,13.473,17.085,12.624,16.049,12.068Z" transform="translate(-3.2 -3.037)" fill="none" stroke="#e26d03" stroke-width="1"/>
</svg>
