<svg xmlns="http://www.w3.org/2000/svg" width="13.718" height="13.77" viewBox="0 0 13.718 13.77">
  <path id="WhatsApp" d="M13.718,6.589a6.746,6.746,0,0,1-9.99,5.851L0,13.624l1.216-3.585a6.613,6.613,0,0,1-.966-3.45,6.735,6.735,0,1,1,13.469,0ZM6.984.971A5.646,5.646,0,0,0,1.322,6.589,5.559,5.559,0,0,0,2.4,9.883l-.707,2.087,2.176-.692a5.668,5.668,0,0,0,8.777-4.689A5.647,5.647,0,0,0,6.984.971Zm3.4,7.157c-.042-.068-.152-.108-.316-.191S9.092,7.458,8.941,7.4s-.262-.082-.372.082-.426.533-.523.642-.193.123-.359.041a4.518,4.518,0,0,1-1.325-.813,4.938,4.938,0,0,1-.918-1.134c-.1-.164-.01-.252.072-.334s.165-.191.248-.288a1.1,1.1,0,0,0,.165-.273.3.3,0,0,0-.014-.288c-.041-.082-.372-.888-.509-1.216s-.275-.273-.371-.273-.206-.014-.316-.014a.611.611,0,0,0-.44.2A1.833,1.833,0,0,0,3.7,5.108,3.169,3.169,0,0,0,4.374,6.8a6.755,6.755,0,0,0,2.82,2.473c1.678.656,1.678.437,1.981.409a1.67,1.67,0,0,0,1.114-.779,1.366,1.366,0,0,0,.1-.777Z" transform="translate(0 0.146)" fill="#e26d03"/>
</svg>
